<svg xmlns="http://www.w3.org/2000/svg" width="1709" height="1709" fill="none" viewBox="0 0 1709 1709">
  <path fill="#151515" d="M0 0h1708.79v1708.79H0z"/>
  <path fill="#DB1574" d="M500.384 449.243c60.529-54.506 131.986-95.362 209.492-120.201 13.105-4.201 27.49-.091 36.43 10.411l89.95 105.653c24.39 28.637 67.352 32.221 95.958 8.004a67.58 67.58 0 0 0 7.808-7.79l89.598-105.381c8.91-10.478 23.3-14.526 36.44-10.249 38.43 12.515 75.66 29.095 111.23 49.631 35.55 20.522 68.51 44.465 98.54 71.467 10.27 9.232 13.97 23.713 9.35 36.665l-46.41 130.342c-12.58 35.291 5.94 74.187 41.37 86.883a68.096 68.096 0 0 0 10.69 2.88l136.48 25.072c13.56 2.491 24.31 12.892 27.23 26.342 17.24 79.543 17.59 161.854.65 241.528-2.86 13.44-13.57 23.8-27.13 26.24l-136.53 24.56c-36.96 6.66-61.4 41.97-54.59 78.88.67 3.63 1.64 7.2 2.89 10.67l46.99 130.53c4.67 12.96 1.05 27.41-9.16 36.61-60.53 54.51-131.99 95.36-209.49 120.2-13.11 4.19-27.49.09-36.43-10.41l-89.953-105.66c-24.386-28.63-67.352-32.21-95.954-8a67.768 67.768 0 0 0-7.82 7.8l-89.667 105.36c-8.912 10.47-23.296 14.51-36.427 10.24-38.403-12.52-75.618-29.09-111.165-49.61-35.568-20.53-68.546-44.49-98.596-71.52-10.271-9.24-13.962-23.72-9.344-36.67l46.462-130.29c12.579-35.29-5.942-74.18-41.367-86.88a69.552 69.552 0 0 0-10.695-2.88l-136.478-25.07c-13.564-2.49-24.315-12.9-27.231-26.345-17.243-79.536-17.591-161.848-.65-241.524 2.859-13.442 13.567-23.803 27.123-26.241l136.531-24.565c36.969-6.654 61.41-41.968 54.591-78.877a67.93 67.93 0 0 0-2.887-10.673L491.22 485.852c-4.666-12.959-1.047-27.414 9.164-36.609Zm242.899 345.223c-46.451 80.455-18.86 183.346 61.626 229.814 80.486 46.47 183.388 18.92 229.841-61.537 46.45-80.455 18.86-183.347-61.628-229.815-80.486-46.469-183.388-18.917-229.839 61.538Z"/>
  <path fill="#15DB7C" d="M440.793 410.717c60.529-54.506 131.987-95.361 209.492-120.201 13.106-4.201 27.49-.09 36.43 10.411l89.95 105.653c24.39 28.638 67.352 32.221 95.958 8.004a67.413 67.413 0 0 0 7.808-7.789l89.6-105.382c8.909-10.478 23.3-14.526 36.439-10.249 38.42 12.516 75.66 29.095 111.23 49.631 35.55 20.522 68.5 44.465 98.54 71.467 10.27 9.232 13.96 23.713 9.35 36.665l-46.41 130.343c-12.58 35.29 5.94 74.187 41.37 86.882a68.096 68.096 0 0 0 10.69 2.88l136.48 25.072c13.56 2.491 24.31 12.892 27.23 26.342 17.24 79.543 17.58 161.854.65 241.53-2.86 13.438-13.57 23.799-27.13 26.237l-136.53 24.567c-36.96 6.65-61.4 41.97-54.59 78.88.67 3.62 1.64 7.2 2.89 10.67l46.99 130.52c4.67 12.96 1.05 27.42-9.16 36.61-60.53 54.51-131.99 95.37-209.49 120.2-13.11 4.2-27.493.09-36.432-10.41l-89.952-105.65c-24.386-28.63-67.352-32.22-95.953-8.01a66.999 66.999 0 0 0-7.821 7.81l-89.667 105.36c-8.912 10.47-23.295 14.51-36.427 10.23-38.403-12.51-75.618-29.08-111.165-49.61-35.567-20.53-68.546-44.49-98.596-71.52-10.271-9.23-13.962-23.72-9.344-36.67l46.462-130.28c12.579-35.29-5.942-74.19-41.367-86.88a67.367 67.367 0 0 0-10.694-2.88l-136.478-25.077c-13.564-2.492-24.316-12.895-27.232-26.344-17.243-79.536-17.591-161.848-.65-241.524 2.859-13.441 13.568-23.803 27.123-26.241l136.532-24.565c36.968-6.653 61.409-41.968 54.59-78.877a67.959 67.959 0 0 0-2.887-10.673l-46.993-130.523c-4.666-12.959-1.047-27.414 9.164-36.609ZM683.692 755.94c-46.451 80.455-18.86 183.346 61.626 229.815 80.486 46.465 183.388 18.915 229.839-61.538 46.453-80.455 18.86-183.346-61.626-229.815-80.486-46.469-183.388-18.917-229.839 61.538Z"/>
</svg>
